<svg viewBox="0 0 70 70" fill="none"
  xmlns="http://www.w3.org/2000/svg">
  <path fill-rule="evenodd" clip-rule="evenodd" d="M0 15.5559C0 9.82852 4.64297 5.18555 10.3704 5.18555H54.4444C60.1718 5.18555 64.8148 9.82852 64.8148 15.5559V59.63C64.8148 65.3574 60.1718 70.0004 54.4444 70.0004H10.3704C4.64297 70.0004 0 65.3574 0 59.63V15.5559ZM44.9383 30.654V51.4709C44.9383 52.2597 44.6082 53.0161 44.0207 53.5738C43.4332 54.1315 42.6364 54.4448 41.8056 54.4448H23.0093C22.1784 54.4448 21.3816 54.1315 20.7941 53.5738C20.2066 53.0161 19.8765 52.2597 19.8765 51.4709V23.715C19.8765 22.9262 20.2066 22.1698 20.7941 21.6121C21.3816 21.0544 22.1784 20.7411 23.0093 20.7411H34.4959L44.9383 30.654ZM34.4959 31.6452C34.2189 31.6452 33.9533 31.5408 33.7575 31.3549C33.5617 31.169 33.4516 30.9169 33.4516 30.654V22.7237H23.0093C22.7323 22.7237 22.4667 22.8281 22.2709 23.014C22.075 23.1999 21.965 23.4521 21.965 23.715V51.4709C21.965 51.7339 22.075 51.986 22.2709 52.1719C22.4667 52.3578 22.7323 52.4622 23.0093 52.4622H41.8056C42.0825 52.4622 42.3481 52.3578 42.5439 52.1719C42.7398 51.986 42.8498 51.7339 42.8498 51.4709V31.6452H34.4959ZM35.5401 24.5357L40.9409 29.6627H35.5401V24.5357ZM26.358 36.2967C25.6421 36.2967 25.0617 36.877 25.0617 37.593C25.0617 38.3089 25.6421 38.8892 26.358 38.8892H38.4568C39.1727 38.8892 39.7531 38.3089 39.7531 37.593C39.7531 36.877 39.1727 36.2967 38.4568 36.2967H26.358ZM25.0617 41.9139C25.0617 41.198 25.6421 40.6176 26.358 40.6176H38.4568C39.1727 40.6176 39.7531 41.198 39.7531 41.9139C39.7531 42.6299 39.1727 43.2102 38.4568 43.2102H26.358C25.6421 43.2102 25.0617 42.6299 25.0617 41.9139ZM26.358 44.9386C25.6421 44.9386 25.0617 45.519 25.0617 46.2349C25.0617 46.9509 25.6421 47.5312 26.358 47.5312H38.4568C39.1727 47.5312 39.7531 46.9509 39.7531 46.2349C39.7531 45.519 39.1727 44.9386 38.4568 44.9386H26.358Z" fill="url(#paint0_linear_552_6993)"/>
  <path fill-rule="evenodd" clip-rule="evenodd" d="M52.7166 0H66.5437C68.4529 0 70.0005 1.5476 70.0005 3.45679V17.284C70.0005 19.1931 68.4529 20.7407 66.5437 20.7407H52.7166C50.8074 20.7407 49.2598 19.1931 49.2598 17.284V3.45679C49.2598 1.5476 50.8074 0 52.7166 0Z" fill="#73DD9D"/>
  <path fill-rule="evenodd" clip-rule="evenodd" d="M59.6292 4.32129C59.4982 4.32129 59.3726 4.37331 59.28 4.4659C59.1874 4.55849 59.1354 4.68408 59.1354 4.81503L59.1354 10.5355L57.0163 8.41536C56.9704 8.36945 56.9159 8.33304 56.8559 8.3082C56.7959 8.28335 56.7316 8.27056 56.6667 8.27056C56.6018 8.27056 56.5375 8.28335 56.4775 8.3082C56.4176 8.33304 56.3631 8.36945 56.3172 8.41536C56.2713 8.46127 56.2348 8.51576 56.21 8.57574C56.1852 8.63572 56.1724 8.7 56.1724 8.76493C56.1724 8.82985 56.1852 8.89413 56.21 8.95411C56.2348 9.01409 56.2713 9.06859 56.3172 9.11449L59.2796 12.0769C59.3254 12.1229 59.3799 12.1594 59.4399 12.1843C59.4999 12.2092 59.5642 12.222 59.6292 12.222C59.6941 12.222 59.7584 12.2092 59.8184 12.1843C59.8784 12.1594 59.9329 12.1229 59.9787 12.0769L62.9411 9.11449C62.987 9.06859 63.0235 9.01409 63.0483 8.95411C63.0732 8.89413 63.0859 8.82985 63.0859 8.76493C63.0859 8.70001 63.0732 8.63572 63.0483 8.57574C63.0235 8.51576 62.987 8.46127 62.9411 8.41536C62.8484 8.32265 62.7227 8.27056 62.5916 8.27056C62.5267 8.27056 62.4624 8.28335 62.4024 8.3082C62.3424 8.33304 62.2879 8.36945 62.242 8.41536L60.1229 10.5355L60.1229 4.81503C60.1229 4.68408 60.0709 4.55849 59.9783 4.4659C59.8857 4.37331 59.7601 4.32129 59.6292 4.32129Z" fill="white"/>
  <path fill-rule="evenodd" clip-rule="evenodd" d="M57.2001 8.23153C57.1301 8.16155 57.0471 8.10604 56.9556 8.06816C56.8642 8.03029 56.7662 8.0108 56.6672 8.0108C56.5683 8.0108 56.4703 8.03029 56.3788 8.06816C56.2874 8.10604 56.2043 8.16155 56.1343 8.23153C56.0644 8.30151 56.0089 8.38459 55.971 8.47602C55.9331 8.56746 55.9136 8.66545 55.9136 8.76442C55.9136 8.86339 55.9331 8.96138 55.971 9.05282C56.0089 9.14425 56.0644 9.22733 56.1343 9.29731L59.0965 12.2595C59.1665 12.3296 59.2496 12.3853 59.3411 12.4232C59.4325 12.4612 59.5306 12.4807 59.6297 12.4807C59.7287 12.4807 59.8268 12.4612 59.9183 12.4232C60.0097 12.3853 60.0928 12.3296 60.1628 12.2595L63.125 9.29731C63.195 9.22733 63.2505 9.14425 63.2883 9.05282C63.3262 8.96138 63.3457 8.86339 63.3457 8.76442C63.3457 8.66545 63.3262 8.56746 63.2883 8.47602C63.2505 8.38459 63.195 8.30151 63.125 8.23153C62.9836 8.0902 62.792 8.0108 62.5921 8.0108C62.4931 8.0108 62.3951 8.03029 62.3037 8.06817C62.2123 8.10604 62.1292 8.16155 62.0592 8.23153L60.3827 9.90885L60.3827 4.81452C60.3827 4.61481 60.3033 4.42329 60.1621 4.28207C60.0209 4.14086 59.8294 4.06152 59.6297 4.06152C59.43 4.06152 59.2384 4.14086 59.0972 4.28207C58.956 4.42329 58.8767 4.61481 58.8767 4.81452L58.8767 9.90885L57.2001 8.23153ZM59.1359 10.535L59.1359 4.81452C59.1359 4.68357 59.1879 4.55799 59.2805 4.46539C59.3731 4.3728 59.4987 4.32078 59.6297 4.32078C59.7606 4.32078 59.8862 4.3728 59.9788 4.46539C60.0714 4.55799 60.1234 4.68357 60.1234 4.81452L60.1234 10.535L62.2425 8.41485C62.2884 8.36895 62.3429 8.33253 62.4029 8.30769C62.4629 8.28285 62.5272 8.27006 62.5921 8.27006C62.7232 8.27006 62.8489 8.32214 62.9416 8.41485C62.9876 8.46076 63.024 8.51526 63.0488 8.57524C63.0737 8.63521 63.0864 8.6995 63.0864 8.76442C63.0864 8.82934 63.0737 8.89363 63.0488 8.9536C63.024 9.01358 62.9876 9.06808 62.9416 9.11399L59.9792 12.0764C59.9334 12.1224 59.8789 12.1589 59.8189 12.1838C59.7589 12.2087 59.6946 12.2215 59.6297 12.2215C59.5647 12.2215 59.5004 12.2087 59.4404 12.1838C59.3804 12.1589 59.326 12.1224 59.2801 12.0764L56.3177 9.11399C56.2718 9.06808 56.2353 9.01358 56.2105 8.9536C56.1857 8.89362 56.1729 8.82934 56.1729 8.76442C56.1729 8.6995 56.1857 8.63521 56.2105 8.57524C56.2353 8.51526 56.2718 8.46076 56.3177 8.41485C56.3636 8.36895 56.4181 8.33253 56.478 8.30769C56.538 8.28284 56.6023 8.27006 56.6672 8.27006C56.7322 8.27006 56.7964 8.28284 56.8564 8.30769C56.9164 8.33253 56.9709 8.36895 57.0168 8.41485L59.1359 10.535Z" fill="white"/>
  <path fill-rule="evenodd" clip-rule="evenodd" d="M53.5801 14.6913C53.5801 14.2141 53.967 13.8271 54.4443 13.8271L64.8146 13.8271C65.2919 13.8271 65.6788 14.2141 65.6788 14.6913C65.6788 15.1686 65.2919 15.5555 64.8146 15.5555L54.4443 15.5555C53.967 15.5555 53.5801 15.1686 53.5801 14.6913Z" fill="white"/>
  <path fill-rule="evenodd" clip-rule="evenodd" d="M54.4444 11.2344C54.9217 11.2344 55.3086 11.6213 55.3086 12.0986V14.6912C55.3086 15.1684 54.9217 15.5554 54.4444 15.5554C53.9671 15.5554 53.5802 15.1684 53.5802 14.6912V12.0986C53.5802 11.6213 53.9671 11.2344 54.4444 11.2344Z" fill="white"/>
  <path fill-rule="evenodd" clip-rule="evenodd" d="M64.8155 11.2344C65.2928 11.2344 65.6797 11.6213 65.6797 12.0986V14.6912C65.6797 15.1684 65.2928 15.5554 64.8155 15.5554C64.3382 15.5554 63.9513 15.1684 63.9513 14.6912V12.0986C63.9513 11.6213 64.3382 11.2344 64.8155 11.2344Z" fill="white"/>
  <defs>
    <linearGradient id="paint0_linear_552_6993" x1="-66.7088" y1="52.3236" x2="-16.1451" y2="121.585" gradientUnits="userSpaceOnUse">
      <stop stop-color="#004BFF"/>
      <stop offset="0.854167" stop-color="#FF6047"/>
      <stop offset="0.985989" stop-color="#F98D51"/>
    </linearGradient>
  </defs>
</svg>
